<svg xmlns="http://www.w3.org/2000/svg" viewBox="0 0 512 512">
  <defs>
    <linearGradient id="bg" x1="0" y1="0" x2="0" y2="1">
      <stop offset="0" stop-color="#fff8e8"/>
      <stop offset="1" stop-color="#e07b5b"/>
    </linearGradient>
  </defs>
  <rect width="512" height="512" rx="96" fill="url(#bg)"/>
  <g transform="translate(256 296)">
    <ellipse cx="0" cy="60" rx="180" ry="20" fill="rgba(0,0,0,0.18)"/>
    <ellipse cx="0" cy="0" rx="160" ry="100" fill="#e88a6c"/>
    <ellipse cx="-50" cy="-40" rx="60" ry="30" fill="#fff" opacity="0.3"/>
    <ellipse cx="0" cy="40" rx="120" ry="50" fill="#f6bea2" opacity="0.5"/>
    <rect x="-100" y="80" width="32" height="80" fill="#c66a4a" rx="12"/>
    <rect x="-40" y="80" width="32" height="80" fill="#c66a4a" rx="12"/>
    <rect x="20" y="80" width="32" height="80" fill="#c66a4a" rx="12"/>
    <rect x="80" y="80" width="32" height="80" fill="#c66a4a" rx="12"/>
    <circle cx="130" cy="-30" r="60" fill="#e88a6c"/>
    <polygon points="105,-65 115,-110 130,-75" fill="#c66a4a"/>
    <polygon points="145,-60 155,-105 170,-70" fill="#c66a4a"/>
    <circle cx="155" cy="-30" r="22" fill="white" stroke="#222" stroke-width="2"/>
    <circle cx="160" cy="-26" r="13" fill="#1a1a1a"/>
    <circle cx="167" cy="-37" r="6" fill="white"/>
    <path d="M 135 0 q 25 28 50 0" stroke="#3a2118" stroke-width="6" fill="none" stroke-linecap="round"/>
    <ellipse cx="115" cy="15" rx="12" ry="7" fill="#f29ca3"/>
  </g>
</svg>
